<svg xmlns="http://www.w3.org/2000/svg" viewBox="0 0 322.57 76.19"><g id="Layer_2" data-name="Layer 2"><g id="Layer_1-2" data-name="Layer 1"><path d="M318.79,66.39c-.55.71-6.22-18.53-6.22-18.53s-1.48-7-3.38-9.38a17.24,17.24,0,0,0-7.78-5.35,32.27,32.27,0,0,0-11.19-1.81,36.28,36.28,0,0,0-11,1.6,27.72,27.72,0,0,0-8,3.94H259.75v-23h-9.14v23h-14s-3.18-2-4.77-2.79a27.79,27.79,0,0,0-12.47-2.75,28.87,28.87,0,0,0-13,2.79A23.91,23.91,0,0,0,202,36.86h-7.47L196,27.27,194.57,17a46.26,46.26,0,0,1,6.12-1C189.58,14.63,189,13.42,196,4.68c-8.74,7-9.95,6.43-11.3-4.68-1.34,11.11-2.56,11.65-11.29,4.68,7,8.74,6.43,10-4.68,11.3a38,38,0,0,1,6.83,1.24l-2.15,10.05,2.15,6.59h-11v.23c-.42-.27-7.31-2.86-11.1-2.86-4.06,0-27.58,1.57-27.58,1.57v6.06H109c-.1-.12-.19-.26-.29-.38a17.24,17.24,0,0,0-7.78-5.35,32.33,32.33,0,0,0-11.2-1.81,36.38,36.38,0,0,0-10.95,1.6,27.06,27.06,0,0,0-8.68,4.41,17.39,17.39,0,0,0-3.5,3.53H59.86q-1.19-10.74-8.07-17Q43.47,16.33,28,16.33H0V74.62s79.29,1.57,82.75,1.57c2.9,0,33.12-.41,35-1.24.06,0,17.29-.33,17.29-.33V53.05a14.55,14.55,0,0,1,1.89-7.45,12.88,12.88,0,0,1,5.44-5.06,17.39,17.39,0,0,1,8.06-1.81c3.74,0,6.67,1.05,8.81,3.16a11.58,11.58,0,0,1,3.22,8.61l.12,25.36H309.43c.87.21,12.1-2.83,13.14-4.2Z"/></g></g></svg>