<svg xmlns="http://www.w3.org/2000/svg" viewBox="0 0 323.57 76.19"><defs><style>.cls-1{fill:#fff;}</style></defs><g id="Layer_2" data-name="Layer 2"><g id="Layer_1-2" data-name="Layer 1"><path class="cls-1" d="M0,16.33H28q15.48,0,23.8,7.53T60.1,45.48q0,9.47-3.7,15.89a24.19,24.19,0,0,1-10.87,9.84q-7.16,3.41-17.62,3.41H0Zm27.75,49.9a27,27,0,0,0,12.06-2.47,17.64,17.64,0,0,0,7.62-7A21.77,21.77,0,0,0,50,45.48q0-10-5.72-15.36T27.75,24.81H10.05V66.23Z"/><path class="cls-1" d="M73.07,74.66a13.76,13.76,0,0,1-6.3-4.4,10.51,10.51,0,0,1-2.22-6.59q0-5.6,5.39-9.34t15.69-4.57l13.42-1.32a4.89,4.89,0,0,0,2.55-1.11,2.7,2.7,0,0,0,1-2.1,4.51,4.51,0,0,0-1.65-3.34,11.36,11.36,0,0,0-4.61-2.38,23.36,23.36,0,0,0-6.59-.87A23.69,23.69,0,0,0,82,39.88a21.22,21.22,0,0,0-6.21,3.25A13.7,13.7,0,0,0,72,47.29l-6.83-3.95a15.06,15.06,0,0,1,4.9-6,27.06,27.06,0,0,1,8.68-4.41,36.38,36.38,0,0,1,10.95-1.6,32.33,32.33,0,0,1,11.2,1.81,17.24,17.24,0,0,1,7.78,5.35,12.51,12.51,0,0,1,2.84,8.07v19.1a3.19,3.19,0,0,0,.79,2.26,2.48,2.48,0,0,0,1.93.87,4,4,0,0,0,2.18-.66,7.19,7.19,0,0,0,1.85-1.73l3.79,5.27A10.81,10.81,0,0,1,117.74,75a14.43,14.43,0,0,1-5.93,1.24,10.51,10.51,0,0,1-4.65-1,7.61,7.61,0,0,1-3.13-2.8,9.18,9.18,0,0,1-1.44-4.07l-.08-1.07h-.09A16.45,16.45,0,0,1,97.77,72,22.13,22.13,0,0,1,91,75.12a30.93,30.93,0,0,1-8.23,1.07A27.54,27.54,0,0,1,73.07,74.66ZM93.86,67.3a15,15,0,0,0,6.26-4.45,9.71,9.71,0,0,0,2.22-6.18V54.45L86.78,56q-6.75.48-9.88,2.3t-3.13,4.45a5,5,0,0,0,2.92,4.57q2.93,1.6,8.2,1.6A23.68,23.68,0,0,0,93.86,67.3Z"/><path class="cls-1" d="M163.27,33.33a14.29,14.29,0,0,1,6.26,6.14A20.18,20.18,0,0,1,171.67,49v25.6h-9.22V50.5a11.58,11.58,0,0,0-3.22-8.61c-2.14-2.11-5.07-3.16-8.81-3.16a17.39,17.39,0,0,0-8.06,1.81,12.88,12.88,0,0,0-5.44,5.06A14.55,14.55,0,0,0,135,53.05V74.62h-9.14V32.8h8L135,40h.08a18.76,18.76,0,0,1,7.53-6.5,24.42,24.42,0,0,1,10.83-2.31A21.34,21.34,0,0,1,163.27,33.33Z"/><path class="cls-1" d="M179.32,32.8h9.23V74.62h-9.23Z"/><path class="cls-1" d="M208.39,73.26a23.2,23.2,0,0,1-9.64-8.1,21.07,21.07,0,0,1-3.45-11.94,20.43,20.43,0,0,1,3.21-11.37,22,22,0,0,1,8.85-7.74,28.87,28.87,0,0,1,13-2.79,27.79,27.79,0,0,1,12.47,2.75,20.25,20.25,0,0,1,8.56,7.74,21.9,21.9,0,0,1,3.09,11.24c0,.61,0,1.22,0,1.85a14.11,14.11,0,0,1-.21,1.86H205.26a11.71,11.71,0,0,0,2.88,6.17,15.64,15.64,0,0,0,6.18,4.2,22.78,22.78,0,0,0,8.39,1.48,26.31,26.31,0,0,0,10.3-2,17,17,0,0,0,7-4.9l5.68,4.36a17.19,17.19,0,0,1-5.47,5.35A28.51,28.51,0,0,1,231.93,75a37.63,37.63,0,0,1-9.71,1.24A31.9,31.9,0,0,1,208.39,73.26ZM234.9,50a12.6,12.6,0,0,0-2.47-6.1A13,13,0,0,0,227.24,40a17.8,17.8,0,0,0-7.16-1.4,16.55,16.55,0,0,0-7.16,1.52,14.62,14.62,0,0,0-5.27,4.12A12.1,12.1,0,0,0,205.09,50Z"/><path class="cls-1" d="M251.61,13.86h9.14V74.62h-9.14Z"/><path class="cls-1" d="M274.54,74.66a13.78,13.78,0,0,1-6.29-4.4A10.46,10.46,0,0,1,266,63.67q0-5.6,5.4-9.34t15.68-4.57l13.42-1.32a4.89,4.89,0,0,0,2.55-1.11,2.7,2.7,0,0,0,1-2.1,4.51,4.51,0,0,0-1.65-3.34,11.36,11.36,0,0,0-4.61-2.38,23.29,23.29,0,0,0-6.58-.87,23.61,23.61,0,0,0-7.74,1.24,21.15,21.15,0,0,0-6.22,3.25,13.7,13.7,0,0,0-3.75,4.16l-6.83-3.95a15.06,15.06,0,0,1,4.9-6,27.11,27.11,0,0,1,8.69-4.41,36.28,36.28,0,0,1,11-1.6,32.27,32.27,0,0,1,11.19,1.81,17.24,17.24,0,0,1,7.78,5.35A12.52,12.52,0,0,1,313,46.55v19.1a3.23,3.23,0,0,0,.78,2.26,2.48,2.48,0,0,0,1.93.87,4,4,0,0,0,2.18-.66,7.39,7.39,0,0,0,1.86-1.73l3.78,5.27A10.75,10.75,0,0,1,319.21,75a14.43,14.43,0,0,1-5.93,1.24,10.51,10.51,0,0,1-4.65-1,7.67,7.67,0,0,1-3.13-2.8,9.3,9.3,0,0,1-1.44-4.07L304,67.3h-.08A16.62,16.62,0,0,1,299.24,72a22.13,22.13,0,0,1-6.79,3.09,30.88,30.88,0,0,1-8.23,1.07A27.54,27.54,0,0,1,274.54,74.66Zm20.79-7.36a15,15,0,0,0,6.26-4.45,9.71,9.71,0,0,0,2.22-6.18V54.45L288.25,56q-6.75.48-9.88,2.3c-2.08,1.21-3.13,2.69-3.13,4.45a5,5,0,0,0,2.93,4.57q2.91,1.6,8.19,1.6A23.68,23.68,0,0,0,295.33,67.3Z"/><path class="cls-1" d="M200.69,16C189.58,17.32,189,18.54,196,27.27c-8.74-7-9.95-6.43-11.3,4.68-1.34-11.11-2.56-11.65-11.29-4.68,7-8.73,6.43-9.95-4.68-11.29,11.11-1.35,11.65-2.56,4.68-11.3,8.73,7,10,6.43,11.29-4.68,1.35,11.11,2.56,11.65,11.3,4.68C189,13.42,189.58,14.63,200.69,16Z"/></g></g></svg>