<svg xmlns="http://www.w3.org/2000/svg">
  <g>
    <path d="M319 66c-1 1-6-18-6-18l-4-10a17 17 0 0 0-8-5 32 32 0 0 0-11-2 36 36 0 0 0-11 2 28 28 0 0 0-8 4h-11V14h-9v23h-14l-5-3a28 28 0 0 0-13-3 29 29 0 0 0-13 3 24 24 0 0 0-4 3h-7l1-10-1-10a46 46 0 0 1 6-1c-11-1-12-3-5-11-9 7-10 6-11-5-2 11-3 12-12 5 7 8 7 10-4 11a38 38 0 0 1 7 1l-3 10 3 7h-11l-12-3-27 2v6h-17v-1a17 17 0 0 0-8-5 32 32 0 0 0-11-2 36 36 0 0 0-11 2 27 27 0 0 0-9 4 17 17 0 0 0-3 4h-7q-1-11-8-17-9-8-24-8H0v59l83 1a472 472 0 0 0 52-1V53a15 15 0 0 1 2-7 13 13 0 0 1 5-5 17 17 0 0 1 8-2c4 0 7 1 9 3a12 12 0 0 1 3 8l1 26h146l14-4Z" data-name="Layer 1"/>
  </g>
</svg>
