<svg xmlns="http://www.w3.org/2000/svg" viewBox="0 0 110 110"><defs><style>.cls-1{fill:#fff;}.cls-2{fill:#6007cd;}</style></defs><g id="Layer_2" data-name="Layer 2"><g id="Layer_1-2" data-name="Layer 1"><circle class="cls-1" cx="55" cy="55" r="55"/><path class="cls-2" d="M97.59,40.79q0,5.31-6.41,8.9a10.23,10.23,0,0,1-3.82,1.56.24.24,0,0,1-.27-.26c0-.11.33-.29,1-.53a15.5,15.5,0,0,0,6.08-4.17,8.46,8.46,0,0,0,2.36-5.57,5.57,5.57,0,0,0-1.83-4.32,6.87,6.87,0,0,0-4.79-1.66q-9.5,0-17,10.93Q71.58,47.56,65,60.25,57.86,73.91,48.2,77a39.32,39.32,0,0,0,4.55.37,14.43,14.43,0,0,0,10.26-4,42.16,42.16,0,0,0,6.61-7.9c.25-.31.42-.47.53-.47s.14.07.14.13a28.59,28.59,0,0,1-3.13,4.36,25.4,25.4,0,0,1-6.76,6.52,14.71,14.71,0,0,1-7.52,1.78,42,42,0,0,1-6-.46,17.41,17.41,0,0,1-4.48.66c-1.16,0-1.73-.24-1.73-.73s.91-.83,2.72-.83a22.52,22.52,0,0,1,3.82.4,17.48,17.48,0,0,0,6.68-4.75q2.46-3.06,7.34-12.79l.53-1.1H48.86a56.76,56.76,0,0,1-5.41,8.61,29.09,29.09,0,0,1-6.15,5.41Q28.83,78.05,21,78.06a13.09,13.09,0,0,1-7.46-1.94,5.88,5.88,0,0,1-2.87-5.07,4.36,4.36,0,0,1,1-2.82A2.92,2.92,0,0,1,14,67a1.92,1.92,0,0,1,2.16,2.19,2.72,2.72,0,0,1-.67,1.83,2.09,2.09,0,0,1-1.66.76,1.38,1.38,0,0,1-1.56-1.56c.07-.55,0-.83-.2-.83-.4,0-.6.59-.6,1.76A5.24,5.24,0,0,0,14,75.65a11.42,11.42,0,0,0,6.55,1.75,19.2,19.2,0,0,0,12.28-4.17q5.27-4.17,11.95-15H34.56l.26-.66H45.19c.27-.45.72-1.15,1.37-2.13q7-11.3,13.13-15.78a25.15,25.15,0,0,1,3.45-2.07A9.48,9.48,0,0,1,65.8,36.5a.28.28,0,0,1,.2.27c0,.13-.22.29-.66.46A18.11,18.11,0,0,0,58,43q-3.22,4-8.84,14.65h13q6.21-11.1,13.5-17.26t14.23-6.16A8.23,8.23,0,0,1,95.45,36,6,6,0,0,1,97.59,40.79Zm-43.08.8c0,.46-.66,1.39-2,2.79Q49.63,47.53,47,47.53a4.18,4.18,0,0,1-3.16-1.34,4.66,4.66,0,0,1-1.26-3.31,10.69,10.69,0,0,1,1.36-4.55q1.7-3.39,1.7-4.68A3.15,3.15,0,0,0,44,30.92a7.67,7.67,0,0,0-4.19-1q-7.4,0-13.91,6T19.4,48.6a7.85,7.85,0,0,0,2.12,5.69A7.3,7.3,0,0,0,27,56.5q6.54,0,11-6c0-.14.11-.21.2-.24s.27.1.27.3c0,.47-.71,1.32-2.13,2.56a13.91,13.91,0,0,1-9.5,4,7.77,7.77,0,0,1-5.84-2.32,8.31,8.31,0,0,1-2.26-6.05q0-7.17,6.66-13.24T40,29.36q6.94,0,6.95,6.11a11.9,11.9,0,0,1-1.43,5,12,12,0,0,0-1.43,3.89c0,1.68.91,2.52,2.72,2.52a6.7,6.7,0,0,0,3.79-1.56,11.28,11.28,0,0,0,3.29-3.69q.17-.33.33-.33A.24.24,0,0,1,54.51,41.59Z"/><path class="cls-2" d="M81,66.08a4.56,4.56,0,0,1-.34.54l-1.43,2Q73,77.27,69.66,77.26a3.45,3.45,0,0,1-2.61-1.11,3.88,3.88,0,0,1-1-2.77c0-1.29.77-3.24,2.29-5.85l5.19-8.8A8.14,8.14,0,0,0,75.1,59a20.06,20.06,0,0,0,2.53-.23L70.09,71.12a9.06,9.06,0,0,0-1.63,4.15c0,1,.52,1.49,1.56,1.49q3,0,10.41-10.54c.11-.22.23-.33.34-.33S81,66,81,66.08Zm-.49-13.73a3.05,3.05,0,0,1-1,2.17,2.91,2.91,0,0,1-2.14,1A1.32,1.32,0,0,1,75.87,54a3,3,0,0,1,1-2.11,3.07,3.07,0,0,1,2.16-1A1.26,1.26,0,0,1,80.48,52.35Z"/></g></g></svg>