<svg xmlns="http://www.w3.org/2000/svg" viewBox="0 0 403.5 71.5"><defs><style>.cls-1{fill:#fff;}.cls-2{fill:#6007cd;}</style></defs><g id="Layer_2" data-name="Layer 2"><g id="Layer_1-2" data-name="Layer 1"><rect class="cls-1" width="403.5" height="71.5" rx="30.05"/><path class="cls-2" d="M19.61,27.38h2l.13,5h0A8.89,8.89,0,0,1,25.73,28a13.07,13.07,0,0,1,6.47-1.55,10.76,10.76,0,0,1,6.16,1.66,8,8,0,0,1,3.32,4.63h0a9,9,0,0,1,4.13-4.65,13.46,13.46,0,0,1,6.67-1.64,11.36,11.36,0,0,1,5.25,1.13,7.91,7.91,0,0,1,3.36,3.19,9.66,9.66,0,0,1,1.17,4.86l0,13.06H60.22l0-12.8a7.09,7.09,0,0,0-2.11-5.42,8.26,8.26,0,0,0-5.89-2,11.27,11.27,0,0,0-5.4,1.23,8.52,8.52,0,0,0-3.51,3.45,10.69,10.69,0,0,0-1.21,5.18V48.73H39.94V35.93a7,7,0,0,0-2.13-5.42,8.35,8.35,0,0,0-5.91-2c-3.2,0-5.7.87-7.48,2.62a9.64,9.64,0,0,0-2.68,7.24V48.73H19.61Z"/><path class="cls-2" d="M70.91,57.78a19.88,19.88,0,0,1-5-2,12,12,0,0,1-3.38-2.85l1.53-1.53a10.8,10.8,0,0,0,3,2.64,16.5,16.5,0,0,0,4.44,1.85,20.29,20.29,0,0,0,5.19.66,15.5,15.5,0,0,0,6.12-1.13,8.61,8.61,0,0,0,5.49-8.27V43.8h-.05a10.5,10.5,0,0,1-4.14,4.84,12.1,12.1,0,0,1-6.66,1.83A12.61,12.61,0,0,1,71.34,49a10.5,10.5,0,0,1-4.19-4.14,12.32,12.32,0,0,1-1.49-6.11V27.38h2.17V38.61a10.46,10.46,0,0,0,1.23,5.1,8.69,8.69,0,0,0,3.49,3.49,10.46,10.46,0,0,0,5.1,1.23,11.08,11.08,0,0,0,5.53-1.36A10,10,0,0,0,87,43.24a11.43,11.43,0,0,0,1.4-5.74V27.38h2.12l0,19.73a11,11,0,0,1-1.66,6.08,10.54,10.54,0,0,1-4.76,4,17.76,17.76,0,0,1-7.27,1.38A22.49,22.49,0,0,1,70.91,57.78Z"/><path class="cls-2" d="M128.33,27.7a8.47,8.47,0,0,1,3.77,3.36,10.35,10.35,0,0,1,1.29,5.34V48.73h-2.16V36.52a7.44,7.44,0,0,0-2.39-5.86,9.57,9.57,0,0,0-6.63-2.13,13.74,13.74,0,0,0-6.19,1.3,9.18,9.18,0,0,0-4,3.7,11.11,11.11,0,0,0-1.38,5.63v9.57h-2.13V27.38h2l.13,5.61h0a9.88,9.88,0,0,1,4.4-4.74,15,15,0,0,1,7.38-1.72A13.55,13.55,0,0,1,128.33,27.7Z"/><path class="cls-2" d="M140.54,48.9a7.5,7.5,0,0,1-3.51-2,4.82,4.82,0,0,1-1.21-3.32A5.22,5.22,0,0,1,138.6,39c1.86-1.16,4.91-1.94,9.17-2.34l10.07-.93a1.57,1.57,0,0,0,1.07-.41,1.42,1.42,0,0,0,.34-1,4.43,4.43,0,0,0-1.22-3,7.61,7.61,0,0,0-3.33-2,15.43,15.43,0,0,0-4.85-.7,17.87,17.87,0,0,0-5.08.72,14.88,14.88,0,0,0-4.21,1.94,6.25,6.25,0,0,0-2.4,2.78l-1.58-1.19a8.29,8.29,0,0,1,2.81-3.17,16.83,16.83,0,0,1,4.72-2.27,18.86,18.86,0,0,1,5.7-.85,17.2,17.2,0,0,1,5.91,1,9.28,9.28,0,0,1,4.14,2.78,6.52,6.52,0,0,1,1.51,4.3V44.94a2.79,2.79,0,0,0,.62,1.9,2.14,2.14,0,0,0,1.68.7,3.66,3.66,0,0,0,1.61-.39A2.24,2.24,0,0,0,166.43,46l1.32,1.44A3.92,3.92,0,0,1,166,49a5.75,5.75,0,0,1-2.55.6,4.35,4.35,0,0,1-2.14-.53,3.62,3.62,0,0,1-1.47-1.53,5.07,5.07,0,0,1-.55-2.19V43.92h-.05a8.31,8.31,0,0,1-2.85,3,15.51,15.51,0,0,1-4.59,2,22.11,22.11,0,0,1-5.61.7A20.1,20.1,0,0,1,140.54,48.9Zm12.35-2.36a11.64,11.64,0,0,0,4.63-3,6.17,6.17,0,0,0,1.73-4.27V37.5l-11.36,1.07a21.42,21.42,0,0,0-7.59,1.7c-1.57.82-2.36,1.88-2.36,3.18a3.38,3.38,0,0,0,2.15,3.09,14.11,14.11,0,0,0,6.19,1.08A18.93,18.93,0,0,0,152.89,46.54Z"/><path class="cls-2" d="M169.58,27.38h2l.12,5h.05A8.89,8.89,0,0,1,175.7,28a13,13,0,0,1,6.46-1.55,10.77,10.77,0,0,1,6.17,1.66,8.09,8.09,0,0,1,3.32,4.63h0a9,9,0,0,1,4.12-4.65,13.49,13.49,0,0,1,6.68-1.64,11.36,11.36,0,0,1,5.25,1.13,7.91,7.91,0,0,1,3.36,3.19,9.66,9.66,0,0,1,1.17,4.86l0,13.06h-2.13l0-12.8a7.08,7.08,0,0,0-2.1-5.42,8.28,8.28,0,0,0-5.89-2,11.27,11.27,0,0,0-5.4,1.23,8.52,8.52,0,0,0-3.51,3.45A10.57,10.57,0,0,0,192,38.39V48.73H189.9V35.93a7.06,7.06,0,0,0-2.12-5.42,8.35,8.35,0,0,0-5.91-2c-3.21,0-5.7.87-7.49,2.62a9.67,9.67,0,0,0-2.68,7.24V48.73h-2.12Z"/><path class="cls-2" d="M222.43,48.13A12.62,12.62,0,0,1,217.09,44a10,10,0,0,1-1.93-6A10.45,10.45,0,0,1,216.9,32,11.54,11.54,0,0,1,221.79,28a16.71,16.71,0,0,1,7.15-1.47A15.56,15.56,0,0,1,235.8,28a11.37,11.37,0,0,1,4.76,4.1A10.85,10.85,0,0,1,242.33,38c0,.14,0,.3,0,.47a3.4,3.4,0,0,0,0,.42H217.45a7.48,7.48,0,0,0,1.88,4.45,11.42,11.42,0,0,0,4.55,3.1,17.17,17.17,0,0,0,6.37,1.13,20.25,20.25,0,0,0,7.34-1.34,11.56,11.56,0,0,0,5.08-3.43l1.53,1.32a12.37,12.37,0,0,1-3.44,2.83,19.08,19.08,0,0,1-5,2,22.77,22.77,0,0,1-5.65.7A19.06,19.06,0,0,1,222.43,48.13Zm17.65-11.27a7.81,7.81,0,0,0-1.75-4.33,10.21,10.21,0,0,0-4-2.92,14,14,0,0,0-5.45-1,14.34,14.34,0,0,0-5.63,1.07,9.93,9.93,0,0,0-4,3,8.18,8.18,0,0,0-1.77,4.27Z"/><path class="cls-2" d="M261.44,22.43a1.7,1.7,0,0,1-.49-1.26,1.74,1.74,0,0,1,.24-.91,1.65,1.65,0,0,1,.61-.62,1.84,1.84,0,0,1,.9-.21,1.8,1.8,0,0,1,1.31.49,1.66,1.66,0,0,1,.51,1.25,1.78,1.78,0,0,1-.23.88,1.68,1.68,0,0,1-.64.63,1.84,1.84,0,0,1-.95.24A1.7,1.7,0,0,1,261.44,22.43Zm.24,4.95h2.12V48.73h-2.12Z"/><path class="cls-2" d="M274,48.58a13.38,13.38,0,0,1-4.65-2.81A7.91,7.91,0,0,1,267,41.71l1.91-.85a6.49,6.49,0,0,0,2,3.47,11.21,11.21,0,0,0,4,2.38,15.51,15.51,0,0,0,5.3.87,15.15,15.15,0,0,0,4.4-.6,7.65,7.65,0,0,0,3.1-1.65A3.19,3.19,0,0,0,288.76,43,3.09,3.09,0,0,0,287,40.52,15.61,15.61,0,0,0,281.83,39l-4.81-.6A14.91,14.91,0,0,1,271,36.61,4.08,4.08,0,0,1,269,33a5.08,5.08,0,0,1,1.19-3.38,8.28,8.28,0,0,1,3.29-2.27,12.66,12.66,0,0,1,4.79-.85,13.42,13.42,0,0,1,4.5.76,12.09,12.09,0,0,1,3.72,2.05,7.86,7.86,0,0,1,2.28,2.89L287,33.25a7.17,7.17,0,0,0-3.29-3.42,11.84,11.84,0,0,0-9.1-.77A6.59,6.59,0,0,0,272,30.63a3.12,3.12,0,0,0-1,2.19,2.59,2.59,0,0,0,1.47,2.34,13.45,13.45,0,0,0,4.82,1.28l4.85.64A16.9,16.9,0,0,1,288.74,39a4.25,4.25,0,0,1,2.1,3.83,5.12,5.12,0,0,1-1.38,3.5,9,9,0,0,1-3.78,2.43,16.06,16.06,0,0,1-5.47.87A17.86,17.86,0,0,1,274,48.58Z"/><path class="cls-2" d="M308.3,48.71a1.7,1.7,0,0,1-.49-1.26,1.68,1.68,0,0,1,1.74-1.74,1.75,1.75,0,0,1,1.3.49,1.7,1.7,0,0,1,.49,1.25,1.74,1.74,0,0,1-.49,1.26,1.78,1.78,0,0,1-1.3.48A1.7,1.7,0,0,1,308.3,48.71Z"/><path class="cls-2" d="M329.39,48.71a1.7,1.7,0,0,1-.49-1.26,1.68,1.68,0,0,1,1.74-1.74,1.75,1.75,0,0,1,1.3.49,1.7,1.7,0,0,1,.49,1.25,1.74,1.74,0,0,1-.49,1.26,1.78,1.78,0,0,1-1.3.48A1.7,1.7,0,0,1,329.39,48.71Z"/><path class="cls-2" d="M350.47,48.71a1.74,1.74,0,0,1-.48-1.26,1.66,1.66,0,0,1,1.74-1.74,1.75,1.75,0,0,1,1.3.49,1.7,1.7,0,0,1,.48,1.25,1.74,1.74,0,0,1-.48,1.26,1.78,1.78,0,0,1-1.3.48A1.74,1.74,0,0,1,350.47,48.71Z"/></g></g></svg>